<?xml version="1.0" encoding="utf-8"?>
<!-- Generator: Adobe Illustrator 19.2.1, SVG Export Plug-In . SVG Version: 6.00 Build 0)  -->
<svg version="1.1" id="Web" xmlns="http://www.w3.org/2000/svg" xmlns:xlink="http://www.w3.org/1999/xlink" x="0px" y="0px"
	 width="40px" height="40px" viewBox="0 0 40 40" style="enable-background:new 0 0 40 40;" xml:space="preserve">
<style type="text/css">
	.st0{opacity:0.12;fill-rule:evenodd;clip-rule:evenodd;fill:#FFFFFF;}
	.st1{fill:#FFFFFF;}
</style>
<g>
	<path id="The_Sharpness_4_" class="st0" d="M12.548,49.424l17.098,11.417l2.399-1.245L12.548,49.424z"/>
	<g id="Lozenge_7_">
		<g>
			<path class="st1" d="M38.779,13.338c0,0-0.374-2.641-1.524-3.804C35.799,8.007,34.165,8,33.416,7.911
				c-5.363-0.388-13.408-0.388-13.408-0.388h-0.016c0,0-8.045,0-13.408,0.388C5.835,8,4.202,8.007,2.744,9.534
				c-1.149,1.163-1.523,3.804-1.523,3.804s-0.383,3.102-0.383,6.203v2.907c0,3.102,0.383,6.203,0.383,6.203s0.374,2.641,1.523,3.804
				c1.458,1.526,3.373,1.478,4.226,1.637C10.037,34.387,20,34.477,20,34.477s8.053-0.012,13.416-0.399
				c0.749-0.09,2.383-0.097,3.839-1.623c1.15-1.164,1.524-3.804,1.524-3.804s0.383-3.101,0.383-6.203V19.54
				C39.162,16.439,38.779,13.338,38.779,13.338z M16.043,25.971l-0.002-10.768l10.356,5.402L16.043,25.971z"/>
		</g>
	</g>
</g>
</svg>
